<mxfile host="app.diagrams.net" agent="Mozilla/5.0 (Macintosh; Intel Mac OS X 10_15_7) AppleWebKit/537.36 (KHTML, like Gecko) Chrome/138.0.0.0 Safari/537.36" version="27.2.0">
  <diagram name="Ilustrasi Teknis Lengkap" id="WPsJvCh1G2WOhQR1ae0c">
    <mxGraphModel dx="1952" dy="1214" grid="1" gridSize="10" guides="1" tooltips="1" connect="1" arrows="1" fold="1" page="1" pageScale="1" pageWidth="827" pageHeight="1169" math="0" shadow="0">
      <root>
        <mxCell id="0" />
        <mxCell id="1" parent="0" />
        <mxCell id="K5tNEXYpayG--XrOqicq-1" value="BAGIAN 1: TRANSFORMASI DATASET" style="text;html=1;strokeColor=none;fillColor=none;align=center;verticalAlign=middle;whiteSpace=wrap;rounded=0;fontSize=20;fontStyle=1" vertex="1" parent="1">
          <mxGeometry x="490" y="880" width="620" height="30" as="geometry" />
        </mxCell>
        <mxCell id="K5tNEXYpayG--XrOqicq-2" value="" style="rounded=1;whiteSpace=wrap;html=1;fillColor=#f5f5f5;strokeColor=#666666;dashed=1;" vertex="1" parent="1">
          <mxGeometry x="40" y="980" width="420" height="320" as="geometry" />
        </mxCell>
        <mxCell id="K5tNEXYpayG--XrOqicq-3" value="INPUT: Data Kualitatif (Kuesioner)" style="text;html=1;strokeColor=none;fillColor=none;align=center;verticalAlign=middle;whiteSpace=wrap;rounded=0;fontSize=14;fontStyle=1" vertex="1" parent="1">
          <mxGeometry x="50" y="990" width="400" height="30" as="geometry" />
        </mxCell>
        <mxCell id="K5tNEXYpayG--XrOqicq-4" value="&lt;b&gt;ID_Proyek:&lt;/b&gt; PROJ003&lt;br&gt;&lt;b&gt;Nama Proyek:&lt;/b&gt; RSUD Tipe C Maju Jaya&lt;br&gt;&lt;b&gt;Sektor:&lt;/b&gt; Kesehatan&lt;br&gt;&lt;b&gt;Status:&lt;/b&gt; Studi Kelayakan&lt;br&gt;&lt;b&gt;Jenis Token:&lt;/b&gt; Ekuitas&lt;br&gt;&lt;b&gt;Nilai Investasi:&lt;/b&gt; 800 Miliar IDR&lt;br&gt;&lt;b&gt;Target Dana:&lt;/b&gt; 400 Miliar IDR" style="text;html=1;strokeColor=none;fillColor=none;align=left;verticalAlign=top;whiteSpace=wrap;rounded=0;fontSize=12;spacingLeft=20;spacingTop=10;" vertex="1" parent="1">
          <mxGeometry x="60" y="1030" width="380" height="260" as="geometry" />
        </mxCell>
        <mxCell id="K5tNEXYpayG--XrOqicq-5" value="" style="endArrow=classic;html=1;rounded=0;exitX=1;exitY=0.5;exitDx=0;exitDy=0;" edge="1" parent="1" source="K5tNEXYpayG--XrOqicq-2">
          <mxGeometry width="50" height="50" relative="1" as="geometry">
            <mxPoint x="470" y="1140" as="sourcePoint" />
            <mxPoint x="520" y="1140" as="targetPoint" />
          </mxGeometry>
        </mxCell>
        <mxCell id="K5tNEXYpayG--XrOqicq-6" value="&lt;b&gt;PROSES TRANSFORMASI&lt;/b&gt;&lt;br&gt;&lt;br&gt;&lt;b&gt;1. Feature Engineering:&lt;/b&gt;&lt;br&gt;- Membuat `Persentase_Tokenisasi`&lt;br&gt;- Membuat `Token_Risk_Level_Ordinal`&lt;br&gt;&lt;br&gt;&lt;b&gt;2. Encoding:&lt;/b&gt;&lt;br&gt;- One-Hot Encoding (`Sektor`, `Status`)&lt;br&gt;- Label Encoding (`Profil_Risiko`)" style="rounded=1;whiteSpace=wrap;html=1;backgroundOutline=1;fillColor=#e1d5e7;strokeColor=#9673a6;align=left;verticalAlign=top;spacingLeft=10;spacingTop=10;fontSize=12;" vertex="1" parent="1">
          <mxGeometry x="520" y="1030" width="260" height="220" as="geometry" />
        </mxCell>
        <mxCell id="K5tNEXYpayG--XrOqicq-7" value="" style="endArrow=classic;html=1;rounded=0;exitX=1;exitY=0.5;exitDx=0;exitDy=0;" edge="1" parent="1" source="K5tNEXYpayG--XrOqicq-6">
          <mxGeometry width="50" height="50" relative="1" as="geometry">
            <mxPoint x="790" y="1140" as="sourcePoint" />
            <mxPoint x="840" y="1140" as="targetPoint" />
          </mxGeometry>
        </mxCell>
        <mxCell id="K5tNEXYpayG--XrOqicq-27" value="BAGIAN 2: MEKANISME PELATIHAN, PREDIKSI, DAN OUTPUT MODEL" style="text;html=1;strokeColor=none;fillColor=none;align=center;verticalAlign=middle;whiteSpace=wrap;rounded=0;fontSize=20;fontStyle=1" vertex="1" parent="1">
          <mxGeometry x="490" y="20" width="620" height="30" as="geometry" />
        </mxCell>
        <mxCell id="K5tNEXYpayG--XrOqicq-28" value="" style="rounded=1;whiteSpace=wrap;html=1;fillColor=#f5f5f5;strokeColor=#666666;dashed=1;" vertex="1" parent="1">
          <mxGeometry x="40" y="100" width="1520" height="300" as="geometry" />
        </mxCell>
        <mxCell id="K5tNEXYpayG--XrOqicq-29" value="1. MEKANISME PELATIHAN (TRAINING)" style="text;html=1;strokeColor=none;fillColor=none;align=left;verticalAlign=middle;whiteSpace=wrap;rounded=0;fontSize=14;fontStyle=1;" vertex="1" parent="1">
          <mxGeometry x="60" y="110" width="400" height="30" as="geometry" />
        </mxCell>
        <mxCell id="K5tNEXYpayG--XrOqicq-30" value="Dataset Latihan&lt;br&gt;(100 Proyek)" style="shape=cylinder3;whiteSpace=wrap;html=1;boundedLbl=1;backgroundOutline=1;size=15;fillColor=#dae8fc;strokeColor=#6c8ebf;" vertex="1" parent="1">
          <mxGeometry x="80" y="200" width="100" height="120" as="geometry" />
        </mxCell>
        <mxCell id="K5tNEXYpayG--XrOqicq-31" value="Bootstrap Sample 1" style="shape=document;whiteSpace=wrap;html=1;boundedLbl=1;fillColor=#fff2cc;strokeColor=#d6b656;" vertex="1" parent="1">
          <mxGeometry x="280" y="160" width="120" height="80" as="geometry" />
        </mxCell>
        <mxCell id="K5tNEXYpayG--XrOqicq-32" value="Bootstrap Sample 2" style="shape=document;whiteSpace=wrap;html=1;boundedLbl=1;fillColor=#fff2cc;strokeColor=#d6b656;" vertex="1" parent="1">
          <mxGeometry x="280" y="280" width="120" height="80" as="geometry" />
        </mxCell>
        <mxCell id="K5tNEXYpayG--XrOqicq-33" value="" style="endArrow=classic;html=1;rounded=0;exitX=1;exitY=0.25;exitDx=0;exitDy=0;" edge="1" parent="1" source="K5tNEXYpayG--XrOqicq-30" target="K5tNEXYpayG--XrOqicq-31">
          <mxGeometry width="50" height="50" relative="1" as="geometry">
            <mxPoint x="200" y="240" as="sourcePoint" />
            <mxPoint x="250" y="190" as="targetPoint" />
          </mxGeometry>
        </mxCell>
        <mxCell id="K5tNEXYpayG--XrOqicq-34" value="" style="endArrow=classic;html=1;rounded=0;exitX=1;exitY=0.75;exitDx=0;exitDy=0;" edge="1" parent="1" source="K5tNEXYpayG--XrOqicq-30" target="K5tNEXYpayG--XrOqicq-32">
          <mxGeometry width="50" height="50" relative="1" as="geometry">
            <mxPoint x="200" y="300" as="sourcePoint" />
            <mxPoint x="250" y="250" as="targetPoint" />
          </mxGeometry>
        </mxCell>
        <mxCell id="K5tNEXYpayG--XrOqicq-35" value="Decision Tree 1&lt;br&gt;&lt;i&gt;(Random Features)&lt;/i&gt;" style="shape=flowchart.decision;whiteSpace=wrap;html=1;fillColor=#d5e8d4;strokeColor=#82b366;" vertex="1" parent="1">
          <mxGeometry x="500" y="150" width="120" height="100" as="geometry" />
        </mxCell>
        <mxCell id="K5tNEXYpayG--XrOqicq-36" value="Decision Tree 2&lt;br&gt;&lt;i&gt;(Random Features)&lt;/i&gt;" style="shape=flowchart.decision;whiteSpace=wrap;html=1;fillColor=#d5e8d4;strokeColor=#82b366;" vertex="1" parent="1">
          <mxGeometry x="500" y="270" width="120" height="100" as="geometry" />
        </mxCell>
        <mxCell id="K5tNEXYpayG--XrOqicq-37" value="" style="endArrow=classic;html=1;rounded=0;" edge="1" parent="1" source="K5tNEXYpayG--XrOqicq-31" target="K5tNEXYpayG--XrOqicq-35">
          <mxGeometry width="50" height="50" relative="1" as="geometry">
            <mxPoint x="420" y="210" as="sourcePoint" />
            <mxPoint x="470" y="160" as="targetPoint" />
          </mxGeometry>
        </mxCell>
        <mxCell id="K5tNEXYpayG--XrOqicq-38" value="" style="endArrow=classic;html=1;rounded=0;" edge="1" parent="1" source="K5tNEXYpayG--XrOqicq-32" target="K5tNEXYpayG--XrOqicq-36">
          <mxGeometry width="50" height="50" relative="1" as="geometry">
            <mxPoint x="420" y="330" as="sourcePoint" />
            <mxPoint x="470" y="280" as="targetPoint" />
          </mxGeometry>
        </mxCell>
        <mxCell id="K5tNEXYpayG--XrOqicq-39" value="..." style="text;html=1;strokeColor=none;fillColor=none;align=center;verticalAlign=middle;whiteSpace=wrap;rounded=0;fontSize=24;" vertex="1" parent="1">
          <mxGeometry x="720" y="240" width="60" height="30" as="geometry" />
        </mxCell>
        <mxCell id="K5tNEXYpayG--XrOqicq-40" value="Random Forest Model&lt;br&gt;(Kumpulan 100 Decision Tree)" style="shape=cube;whiteSpace=wrap;html=1;boundedLbl=1;backgroundOutline=1;darkOpacity=0.05;size=10;fillColor=#e1d5e7;strokeColor=#9673a6;" vertex="1" parent="1">
          <mxGeometry x="900" y="190" width="180" height="140" as="geometry" />
        </mxCell>
        <mxCell id="K5tNEXYpayG--XrOqicq-41" value="" style="endArrow=classic;html=1;rounded=0;exitX=1;exitY=0.5;exitDx=0;exitDy=0;" edge="1" parent="1" source="K5tNEXYpayG--XrOqicq-35" target="K5tNEXYpayG--XrOqicq-40">
          <mxGeometry width="50" height="50" relative="1" as="geometry">
            <mxPoint x="640" y="210" as="sourcePoint" />
            <mxPoint x="880" y="260" as="targetPoint" />
          </mxGeometry>
        </mxCell>
        <mxCell id="K5tNEXYpayG--XrOqicq-42" value="" style="endArrow=classic;html=1;rounded=0;exitX=1;exitY=0.5;exitDx=0;exitDy=0;" edge="1" parent="1" source="K5tNEXYpayG--XrOqicq-36" target="K5tNEXYpayG--XrOqicq-40">
          <mxGeometry width="50" height="50" relative="1" as="geometry">
            <mxPoint x="640" y="330" as="sourcePoint" />
            <mxPoint x="880" y="260" as="targetPoint" />
          </mxGeometry>
        </mxCell>
        <mxCell id="K5tNEXYpayG--XrOqicq-43" value="" style="rounded=1;whiteSpace=wrap;html=1;fillColor=#f5f5f5;strokeColor=#666666;dashed=1;" vertex="1" parent="1">
          <mxGeometry x="40" y="440" width="1520" height="380" as="geometry" />
        </mxCell>
        <mxCell id="K5tNEXYpayG--XrOqicq-44" value="2. MEKANISME PREDIKSI &amp; OUTPUT" style="text;html=1;strokeColor=none;fillColor=none;align=left;verticalAlign=middle;whiteSpace=wrap;rounded=0;fontSize=14;fontStyle=1;" vertex="1" parent="1">
          <mxGeometry x="60" y="450" width="400" height="30" as="geometry" />
        </mxCell>
        <mxCell id="K5tNEXYpayG--XrOqicq-45" value="Data Proyek Baru" style="shape=document;whiteSpace=wrap;html=1;boundedLbl=1;fillColor=#f8cecc;strokeColor=#b85450;" vertex="1" parent="1">
          <mxGeometry x="80" y="580" width="120" height="80" as="geometry" />
        </mxCell>
        <mxCell id="K5tNEXYpayG--XrOqicq-46" value="" style="endArrow=classic;html=1;rounded=0;exitX=1;exitY=0.5;exitDx=0;exitDy=0;" edge="1" parent="1" source="K5tNEXYpayG--XrOqicq-45">
          <mxGeometry width="50" height="50" relative="1" as="geometry">
            <mxPoint x="220" y="620" as="sourcePoint" />
            <mxPoint x="280" y="620" as="targetPoint" />
          </mxGeometry>
        </mxCell>
        <mxCell id="K5tNEXYpayG--XrOqicq-47" value="Random Forest Model" style="shape=cube;whiteSpace=wrap;html=1;boundedLbl=1;backgroundOutline=1;darkOpacity=0.05;size=10;fillColor=#e1d5e7;strokeColor=#9673a6;" vertex="1" parent="1">
          <mxGeometry x="280" y="550" width="180" height="140" as="geometry" />
        </mxCell>
        <mxCell id="K5tNEXYpayG--XrOqicq-48" value="Vote: Tinggi" style="shape=cloud;whiteSpace=wrap;html=1;" vertex="1" parent="1">
          <mxGeometry x="520" y="490" width="120" height="80" as="geometry" />
        </mxCell>
        <mxCell id="K5tNEXYpayG--XrOqicq-49" value="Vote: Menengah" style="shape=cloud;whiteSpace=wrap;html=1;" vertex="1" parent="1">
          <mxGeometry x="520" y="590" width="120" height="80" as="geometry" />
        </mxCell>
        <mxCell id="K5tNEXYpayG--XrOqicq-50" value="Vote: Tinggi" style="shape=cloud;whiteSpace=wrap;html=1;" vertex="1" parent="1">
          <mxGeometry x="520" y="690" width="120" height="80" as="geometry" />
        </mxCell>
        <mxCell id="K5tNEXYpayG--XrOqicq-51" value="Tree 1" style="endArrow=classic;html=1;rounded=0;" edge="1" parent="1" source="K5tNEXYpayG--XrOqicq-47" target="K5tNEXYpayG--XrOqicq-48">
          <mxGeometry width="50" height="50" relative="1" as="geometry">
            <mxPoint x="480" y="580" as="sourcePoint" />
            <mxPoint x="530" y="530" as="targetPoint" />
          </mxGeometry>
        </mxCell>
        <mxCell id="K5tNEXYpayG--XrOqicq-52" value="Tree 2" style="endArrow=classic;html=1;rounded=0;" edge="1" parent="1" source="K5tNEXYpayG--XrOqicq-47" target="K5tNEXYpayG--XrOqicq-49">
          <mxGeometry width="50" height="50" relative="1" as="geometry">
            <mxPoint x="480" y="630" as="sourcePoint" />
            <mxPoint x="530" y="580" as="targetPoint" />
          </mxGeometry>
        </mxCell>
        <mxCell id="K5tNEXYpayG--XrOqicq-53" value="Tree n" style="endArrow=classic;html=1;rounded=0;" edge="1" parent="1" source="K5tNEXYpayG--XrOqicq-47" target="K5tNEXYpayG--XrOqicq-50">
          <mxGeometry width="50" height="50" relative="1" as="geometry">
            <mxPoint x="480" y="680" as="sourcePoint" />
            <mxPoint x="530" y="630" as="targetPoint" />
          </mxGeometry>
        </mxCell>
        <mxCell id="K5tNEXYpayG--XrOqicq-54" value="Agregasi &amp;amp; Voting Mayoritas" style="ellipse;whiteSpace=wrap;html=1;fillColor=#dae8fc;strokeColor=#6c8ebf;" vertex="1" parent="1">
          <mxGeometry x="720" y="580" width="140" height="80" as="geometry" />
        </mxCell>
        <mxCell id="K5tNEXYpayG--XrOqicq-55" value="" style="endArrow=classic;html=1;rounded=0;" edge="1" parent="1" source="K5tNEXYpayG--XrOqicq-48" target="K5tNEXYpayG--XrOqicq-54">
          <mxGeometry width="50" height="50" relative="1" as="geometry">
            <mxPoint x="660" y="540" as="sourcePoint" />
            <mxPoint x="710" y="490" as="targetPoint" />
          </mxGeometry>
        </mxCell>
        <mxCell id="K5tNEXYpayG--XrOqicq-56" value="" style="endArrow=classic;html=1;rounded=0;" edge="1" parent="1" source="K5tNEXYpayG--XrOqicq-49" target="K5tNEXYpayG--XrOqicq-54">
          <mxGeometry width="50" height="50" relative="1" as="geometry">
            <mxPoint x="660" y="640" as="sourcePoint" />
            <mxPoint x="710" y="590" as="targetPoint" />
          </mxGeometry>
        </mxCell>
        <mxCell id="K5tNEXYpayG--XrOqicq-57" value="" style="endArrow=classic;html=1;rounded=0;" edge="1" parent="1" source="K5tNEXYpayG--XrOqicq-50" target="K5tNEXYpayG--XrOqicq-54">
          <mxGeometry width="50" height="50" relative="1" as="geometry">
            <mxPoint x="660" y="740" as="sourcePoint" />
            <mxPoint x="710" y="690" as="targetPoint" />
          </mxGeometry>
        </mxCell>
        <mxCell id="K5tNEXYpayG--XrOqicq-58" value="OUTPUT FINAL" style="shape=parallelogram;perimeter=parallelogramPerimeter;whiteSpace=wrap;html=1;fixedSize=1;fillColor=#d5e8d4;strokeColor=#82b366;" vertex="1" parent="1">
          <mxGeometry x="940" y="580" width="140" height="80" as="geometry" />
        </mxCell>
        <mxCell id="K5tNEXYpayG--XrOqicq-59" value="" style="endArrow=classic;html=1;rounded=0;" edge="1" parent="1" source="K5tNEXYpayG--XrOqicq-54" target="K5tNEXYpayG--XrOqicq-58">
          <mxGeometry width="50" height="50" relative="1" as="geometry">
            <mxPoint x="880" y="630" as="sourcePoint" />
            <mxPoint x="930" y="580" as="targetPoint" />
          </mxGeometry>
        </mxCell>
        <mxCell id="K5tNEXYpayG--XrOqicq-60" value="&lt;b&gt;1. Prediksi Kelas:&lt;/b&gt;&lt;br&gt;Tinggi" style="shape=note;whiteSpace=wrap;html=1;backgroundOutline=1;darkOpacity=0.05;size=15;" vertex="1" parent="1">
          <mxGeometry x="1140" y="480" width="140" height="100" as="geometry" />
        </mxCell>
        <mxCell id="K5tNEXYpayG--XrOqicq-61" value="&lt;b&gt;2. Probabilitas:&lt;/b&gt;&lt;br&gt;- Tinggi: 65%&lt;br&gt;- Menengah: 30%&lt;br&gt;- Rendah: 5%" style="shape=note;whiteSpace=wrap;html=1;backgroundOutline=1;darkOpacity=0.05;size=15;" vertex="1" parent="1">
          <mxGeometry x="1140" y="600" width="140" height="100" as="geometry" />
        </mxCell>
        <mxCell id="K5tNEXYpayG--XrOqicq-62" value="&lt;b&gt;3. Feature Importance:&lt;/b&gt;&lt;br&gt;- Token_Risk_Level: 0.45&lt;br&gt;- Status_Proyek: 0.25&lt;br&gt;- ..." style="shape=note;whiteSpace=wrap;html=1;backgroundOutline=1;darkOpacity=0.05;size=15;" vertex="1" parent="1">
          <mxGeometry x="1140" y="720" width="140" height="100" as="geometry" />
        </mxCell>
        <mxCell id="K5tNEXYpayG--XrOqicq-63" value="" style="endArrow=classic;html=1;rounded=0;dashed=1;" edge="1" parent="1" source="K5tNEXYpayG--XrOqicq-58" target="K5tNEXYpayG--XrOqicq-60">
          <mxGeometry width="50" height="50" relative="1" as="geometry">
            <mxPoint x="1100" y="580" as="sourcePoint" />
            <mxPoint x="1150" y="530" as="targetPoint" />
          </mxGeometry>
        </mxCell>
        <mxCell id="K5tNEXYpayG--XrOqicq-64" value="" style="endArrow=classic;html=1;rounded=0;dashed=1;" edge="1" parent="1" source="K5tNEXYpayG--XrOqicq-58" target="K5tNEXYpayG--XrOqicq-61">
          <mxGeometry width="50" height="50" relative="1" as="geometry">
            <mxPoint x="1100" y="630" as="sourcePoint" />
            <mxPoint x="1150" y="580" as="targetPoint" />
          </mxGeometry>
        </mxCell>
        <mxCell id="K5tNEXYpayG--XrOqicq-65" value="" style="endArrow=classic;html=1;rounded=0;dashed=1;" edge="1" parent="1" source="K5tNEXYpayG--XrOqicq-58" target="K5tNEXYpayG--XrOqicq-62">
          <mxGeometry width="50" height="50" relative="1" as="geometry">
            <mxPoint x="1100" y="680" as="sourcePoint" />
            <mxPoint x="1150" y="630" as="targetPoint" />
          </mxGeometry>
        </mxCell>
        <mxCell id="K5tNEXYpayG--XrOqicq-66" value="" style="group" vertex="1" connectable="0" parent="1">
          <mxGeometry x="840" y="1050" width="720" height="180" as="geometry" />
        </mxCell>
        <mxCell id="K5tNEXYpayG--XrOqicq-8" value="" style="rounded=1;whiteSpace=wrap;html=1;fillColor=#f5f5f5;strokeColor=#666666;dashed=1;" vertex="1" parent="K5tNEXYpayG--XrOqicq-66">
          <mxGeometry width="720" height="180" as="geometry" />
        </mxCell>
        <mxCell id="K5tNEXYpayG--XrOqicq-9" value="OUTPUT: Matriks Fitur Numerik (Satu Baris Data)" style="text;html=1;strokeColor=none;fillColor=none;align=center;verticalAlign=middle;whiteSpace=wrap;rounded=0;fontSize=14;fontStyle=1" vertex="1" parent="K5tNEXYpayG--XrOqicq-66">
          <mxGeometry x="10" y="10" width="700" height="30" as="geometry" />
        </mxCell>
        <mxCell id="K5tNEXYpayG--XrOqicq-10" value="" style="shape=table;startSize=0;container=1;collapsible=0;childLayout=tableLayout;fixedRows=1;rowLines=1;columnLines=1;fontStyle=0;" vertex="1" parent="K5tNEXYpayG--XrOqicq-66">
          <mxGeometry x="10" y="60" width="700" height="90" as="geometry" />
        </mxCell>
        <mxCell id="K5tNEXYpayG--XrOqicq-11" value="" style="shape=tableRow;horizontal=1;startSize=0;swimlaneHead=0;fontStyle=1;fillColor=#d5e8d4;strokeColor=#82b366;" vertex="1" parent="K5tNEXYpayG--XrOqicq-10">
          <mxGeometry width="700" height="50" as="geometry" />
        </mxCell>
        <mxCell id="K5tNEXYpayG--XrOqicq-12" value="Persentase_Tokenisasi" style="shape=partialRectangle;connectable=0;fillColor=none;top=0;left=0;bottom=0;right=0;overflow=hidden;fontSize=10;" vertex="1" parent="K5tNEXYpayG--XrOqicq-11">
          <mxGeometry width="100" height="50" as="geometry">
            <mxRectangle width="100" height="50" as="alternateBounds" />
          </mxGeometry>
        </mxCell>
        <mxCell id="K5tNEXYpayG--XrOqicq-13" value="Token_Risk_Level_Ordinal" style="shape=partialRectangle;connectable=0;fillColor=none;top=0;left=0;bottom=0;right=0;overflow=hidden;fontSize=10;" vertex="1" parent="K5tNEXYpayG--XrOqicq-11">
          <mxGeometry x="100" width="100" height="50" as="geometry">
            <mxRectangle width="100" height="50" as="alternateBounds" />
          </mxGeometry>
        </mxCell>
        <mxCell id="K5tNEXYpayG--XrOqicq-14" value="Sektor_Kesehatan" style="shape=partialRectangle;connectable=0;fillColor=none;top=0;left=0;bottom=0;right=0;overflow=hidden;fontSize=10;" vertex="1" parent="K5tNEXYpayG--XrOqicq-11">
          <mxGeometry x="200" width="100" height="50" as="geometry">
            <mxRectangle width="100" height="50" as="alternateBounds" />
          </mxGeometry>
        </mxCell>
        <mxCell id="K5tNEXYpayG--XrOqicq-15" value="Status_Studi_Kelayakan" style="shape=partialRectangle;connectable=0;fillColor=none;top=0;left=0;bottom=0;right=0;overflow=hidden;fontSize=10;" vertex="1" parent="K5tNEXYpayG--XrOqicq-11">
          <mxGeometry x="300" width="100" height="50" as="geometry">
            <mxRectangle width="100" height="50" as="alternateBounds" />
          </mxGeometry>
        </mxCell>
        <mxCell id="K5tNEXYpayG--XrOqicq-16" value="Jenis_Token_Ekuitas" style="shape=partialRectangle;connectable=0;fillColor=none;top=0;left=0;bottom=0;right=0;overflow=hidden;fontSize=10;" vertex="1" parent="K5tNEXYpayG--XrOqicq-11">
          <mxGeometry x="400" width="100" height="50" as="geometry">
            <mxRectangle width="100" height="50" as="alternateBounds" />
          </mxGeometry>
        </mxCell>
        <mxCell id="K5tNEXYpayG--XrOqicq-17" value="... (fitur lain)" style="shape=partialRectangle;connectable=0;fillColor=none;top=0;left=0;bottom=0;right=0;overflow=hidden;fontSize=10;" vertex="1" parent="K5tNEXYpayG--XrOqicq-11">
          <mxGeometry x="500" width="100" height="50" as="geometry">
            <mxRectangle width="100" height="50" as="alternateBounds" />
          </mxGeometry>
        </mxCell>
        <mxCell id="K5tNEXYpayG--XrOqicq-18" value="Profil_Risiko (Target)" style="shape=partialRectangle;connectable=0;fillColor=none;top=0;left=0;bottom=0;right=0;overflow=hidden;fontSize=10;fontStyle=1;fillColor=#fff2cc;strokeColor=#d6b656;" vertex="1" parent="K5tNEXYpayG--XrOqicq-11">
          <mxGeometry x="600" width="100" height="50" as="geometry">
            <mxRectangle width="100" height="50" as="alternateBounds" />
          </mxGeometry>
        </mxCell>
        <mxCell id="K5tNEXYpayG--XrOqicq-19" value="" style="shape=tableRow;horizontal=1;startSize=0;swimlaneHead=0;fontStyle=0;" vertex="1" parent="K5tNEXYpayG--XrOqicq-10">
          <mxGeometry y="50" width="700" height="40" as="geometry" />
        </mxCell>
        <mxCell id="K5tNEXYpayG--XrOqicq-20" value="0.5" style="shape=partialRectangle;connectable=0;fillColor=none;top=0;left=0;bottom=0;right=0;overflow=hidden;fontSize=12;" vertex="1" parent="K5tNEXYpayG--XrOqicq-19">
          <mxGeometry width="100" height="40" as="geometry">
            <mxRectangle width="100" height="40" as="alternateBounds" />
          </mxGeometry>
        </mxCell>
        <mxCell id="K5tNEXYpayG--XrOqicq-21" value="4" style="shape=partialRectangle;connectable=0;fillColor=none;top=0;left=0;bottom=0;right=0;overflow=hidden;fontSize=12;" vertex="1" parent="K5tNEXYpayG--XrOqicq-19">
          <mxGeometry x="100" width="100" height="40" as="geometry">
            <mxRectangle width="100" height="40" as="alternateBounds" />
          </mxGeometry>
        </mxCell>
        <mxCell id="K5tNEXYpayG--XrOqicq-22" value="1" style="shape=partialRectangle;connectable=0;fillColor=none;top=0;left=0;bottom=0;right=0;overflow=hidden;fontSize=12;" vertex="1" parent="K5tNEXYpayG--XrOqicq-19">
          <mxGeometry x="200" width="100" height="40" as="geometry">
            <mxRectangle width="100" height="40" as="alternateBounds" />
          </mxGeometry>
        </mxCell>
        <mxCell id="K5tNEXYpayG--XrOqicq-23" value="1" style="shape=partialRectangle;connectable=0;fillColor=none;top=0;left=0;bottom=0;right=0;overflow=hidden;fontSize=12;" vertex="1" parent="K5tNEXYpayG--XrOqicq-19">
          <mxGeometry x="300" width="100" height="40" as="geometry">
            <mxRectangle width="100" height="40" as="alternateBounds" />
          </mxGeometry>
        </mxCell>
        <mxCell id="K5tNEXYpayG--XrOqicq-24" value="1" style="shape=partialRectangle;connectable=0;fillColor=none;top=0;left=0;bottom=0;right=0;overflow=hidden;fontSize=12;" vertex="1" parent="K5tNEXYpayG--XrOqicq-19">
          <mxGeometry x="400" width="100" height="40" as="geometry">
            <mxRectangle width="100" height="40" as="alternateBounds" />
          </mxGeometry>
        </mxCell>
        <mxCell id="K5tNEXYpayG--XrOqicq-25" value="..." style="shape=partialRectangle;connectable=0;fillColor=none;top=0;left=0;bottom=0;right=0;overflow=hidden;fontSize=12;" vertex="1" parent="K5tNEXYpayG--XrOqicq-19">
          <mxGeometry x="500" width="100" height="40" as="geometry">
            <mxRectangle width="100" height="40" as="alternateBounds" />
          </mxGeometry>
        </mxCell>
        <mxCell id="K5tNEXYpayG--XrOqicq-26" value="2" style="shape=partialRectangle;connectable=0;fillColor=none;top=0;left=0;bottom=0;right=0;overflow=hidden;fontSize=12;fontStyle=1;" vertex="1" parent="K5tNEXYpayG--XrOqicq-19">
          <mxGeometry x="600" width="100" height="40" as="geometry">
            <mxRectangle width="100" height="40" as="alternateBounds" />
          </mxGeometry>
        </mxCell>
      </root>
    </mxGraphModel>
  </diagram>
</mxfile>
